<svg height="512" viewBox="0 0 64 64" width="512" xmlns="http://www.w3.org/2000/svg"><g id="Twotone"><g id="Color_copy" data-name="Color copy"><g><g><g fill="#cff09e"><path d="m28 41h4v12h-4z"/><path d="m3 57h34v4h-34z"/><path d="m6 53h28v4h-28z"/><path d="m7 41h4v12h-4z"/><path d="m18 41h4v12h-4z"/><path d="m6 37h28v4h-28z"/><path d="m20 25-17 12h34z"/></g><circle cx="20" cy="32" fill="#79bd9a" r="2"/></g><g><path d="m41 41h20v12h-20z" fill="#79bd9a"/><g fill="#cff09e"><circle cx="51" cy="47" r="2"/><path d="m57 41h4a0 0 0 0 1 0 0v4a0 0 0 0 1 0 0h-1a3 3 0 0 1 -3-3v-1a0 0 0 0 1 0 0z"/><path d="m60 49h1a0 0 0 0 1 0 0v4a0 0 0 0 1 0 0h-4a0 0 0 0 1 0 0v-1a3 3 0 0 1 3-3z"/><path d="m41 41h4a0 0 0 0 1 0 0v1a3 3 0 0 1 -3 3h-1a0 0 0 0 1 0 0v-4a0 0 0 0 1 0 0z"/><path d="m41 49h1a3 3 0 0 1 3 3v1a0 0 0 0 1 0 0h-4a0 0 0 0 1 0 0v-4a0 0 0 0 1 0 0z"/></g></g><path d="m14 18a8 8 0 0 1 -8-8v-7h-1a2 2 0 0 0 -2 2v14a2 2 0 0 0 2 2h8a2 2 0 0 0 2-2v-1z" fill="#cff09e"/><g><path d="m43 13h18a0 0 0 0 1 0 0v2a2 2 0 0 1 -2 2h-14a2 2 0 0 1 -2-2v-2a0 0 0 0 1 0 0z" fill="#a8dba8"/><path d="m53 11a6 6 0 0 1 -6-6v-2h-2v10h14l-2-2z" fill="#cff09e"/></g></g></g><g id="Stroke_Close_copy" data-name="Stroke Close copy"><g fill="#3b8686"><path d="m37.577 36.183-17-12a1 1 0 0 0 -1.154 0l-17 12a1 1 0 0 0 .577 1.817h2v3a1 1 0 0 0 1 1v10a1 1 0 0 0 -1 1v3h-2a1 1 0 0 0 -1 1v4a1 1 0 0 0 1 1h34a1 1 0 0 0 1-1v-4a1 1 0 0 0 -1-1h-2v-3a1 1 0 0 0 -1-1h-1v-10h1a1 1 0 0 0 1-1v-3h2a1 1 0 0 0 .577-1.817zm-17.577-9.959 13.85 9.776h-27.699zm-12 15.776h2v10h-2zm9 0v10h-5v-10zm10 0v10h-4v-10zm-6 10h-2v-10h2zm15 8h-32v-2h32zm-29-4v-2h26v2zm24-4h-2v-10h2zm2-12h-26v-2h26z"/><path d="m20 29a3 3 0 1 0 3 3 3 3 0 0 0 -3-3zm0 4a1 1 0 1 1 1-1 1 1 0 0 1 -1 1z"/><circle cx="32" cy="26" r="1"/><path d="m34.828 24.171a1 1 0 0 0 .707-1.707 5 5 0 0 0 -7.071 0 1 1 0 0 0 1.414 1.414 3.075 3.075 0 0 1 4.243 0 .993.993 0 0 0 .707.293z"/><path d="m32 17a8.941 8.941 0 0 0 -6.364 2.636 1 1 0 0 0 1.414 1.414 7 7 0 0 1 9.9 0 1 1 0 0 0 1.414-1.414 8.943 8.943 0 0 0 -6.364-2.636z"/><path d="m61 12h-1v-9a1 1 0 0 0 -1-1h-14a1 1 0 0 0 -1 1v9h-1a1 1 0 0 0 -1 1v2a3 3 0 0 0 3 3h14a3 3 0 0 0 3-3v-2a1 1 0 0 0 -1-1zm-3-1.414-6.586-6.586h6.586zm-12-6.586h2.586l8 8h-10.586zm14 11a1 1 0 0 1 -1 1h-14a1 1 0 0 1 -1-1v-1h16z"/><path d="m5 22h8a3 3 0 0 0 3-3v-14a3 3 0 0 0 -3-3h-8a3 3 0 0 0 -3 3v14a3 3 0 0 0 3 3zm9-17v7.068l-5.221-8.068h4.221a1 1 0 0 1 1 1zm-10 0a1 1 0 0 1 1-1h1.4l7.6 11.75v3.25a1 1 0 0 1 -1 1h-8a1 1 0 0 1 -1-1z"/><path d="m8 18h2a1 1 0 0 0 0-2h-2a1 1 0 0 0 0 2z"/><path d="m19 9h12v5a1 1 0 0 0 2 0v-5h8a1 1 0 0 0 0-2h-22a1 1 0 0 0 0 2z"/><path d="m51 44a3 3 0 1 0 3 3 3 3 0 0 0 -3-3zm0 4a1 1 0 1 1 1-1 1 1 0 0 1 -1 1z"/><path d="m61 40h-20a1 1 0 0 0 -1 1v12a1 1 0 0 0 1 1h20a1 1 0 0 0 1-1v-12a1 1 0 0 0 -1-1zm-1 2v2a2 2 0 0 1 -2-2zm-18 0h2a2 2 0 0 1 -2 2zm0 10v-2a2 2 0 0 1 2 2zm18 0h-2a2 2 0 0 1 2-2zm-4 0h-10a4 4 0 0 0 -4-4v-2a4 4 0 0 0 4-4h10a4 4 0 0 0 4 4v2a4 4 0 0 0 -4 4z"/><circle cx="37" cy="47" r="1"/><path d="m52 37v-16a1 1 0 0 0 -2 0v16a1 1 0 0 0 2 0z"/></g></g></g></svg>